<?xml version="1.0" encoding="UTF-8" standalone="no"?>
<!-- Created with Inkscape (http://www.inkscape.org/) -->

<svg
   xmlns:dc="http://purl.org/dc/elements/1.1/"
   xmlns:cc="http://creativecommons.org/ns#"
   xmlns:rdf="http://www.w3.org/1999/02/22-rdf-syntax-ns#"
   xmlns:svg="http://www.w3.org/2000/svg"
   xmlns="http://www.w3.org/2000/svg"
   xmlns:sodipodi="http://sodipodi.sourceforge.net/DTD/sodipodi-0.dtd"
   xmlns:inkscape="http://www.inkscape.org/namespaces/inkscape"
   width="49.482777mm"
   height="9.8451967mm"
   viewBox="0 0 49.482777 9.8451967"
   version="1.1"
   id="svg8"
   inkscape:version="0.92.1 r15371"
   sodipodi:docname="logo.svg">
  <defs
     id="defs2" />
  <sodipodi:namedview
     id="base"
     pagecolor="#ffffff"
     bordercolor="#666666"
     borderopacity="1.0"
     inkscape:pageopacity="0.0"
     inkscape:pageshadow="2"
     inkscape:zoom="3.959798"
     inkscape:cx="51.675002"
     inkscape:cy="23.337601"
     inkscape:document-units="mm"
     inkscape:current-layer="text919"
     showgrid="false"
     showborder="false"
     inkscape:window-width="1920"
     inkscape:window-height="1001"
     inkscape:window-x="-9"
     inkscape:window-y="-9"
     inkscape:window-maximized="1" />
  <metadata
     id="metadata5">
    <rdf:RDF>
      <cc:Work
         rdf:about="">
        <dc:format>image/svg+xml</dc:format>
        <dc:type
           rdf:resource="http://purl.org/dc/dcmitype/StillImage" />
        <dc:title />
      </cc:Work>
    </rdf:RDF>
  </metadata>
  <g
     inkscape:label="Layer 1"
     inkscape:groupmode="layer"
     id="layer1"
     transform="translate(-119.64551,-146.46763)">
    <g
       transform="matrix(0.34464568,0,0,0.34464568,119.32677,168.35338)"
       id="g921"
       inkscape:export-xdpi="122.886"
       inkscape:export-ydpi="122.886">
      <g
         transform="matrix(0.96775817,0,0,0.96775817,203.92125,28.80084)"
         id="g915"
         style="font-style:normal;font-variant:normal;font-weight:normal;font-stretch:normal;font-size:35.43714523px;line-height:1.25;font-family:'Segoe UI';-inkscape-font-specification:'Segoe UI';letter-spacing:0px;word-spacing:0px;fill:#3cff00;fill-opacity:1;stroke:none;stroke-width:0.88583612;stroke-miterlimit:4;stroke-dasharray:none;stroke-opacity:1"
         aria-label="G">
        <path
           sodipodi:nodetypes="ccccccsccsccccccccccsccccccccscccccc"
           inkscape:connector-curvature="0"
           id="path913"
           style="font-style:normal;font-variant:normal;font-weight:normal;font-stretch:normal;font-family:'Nidus Sans';-inkscape-font-specification:'Nidus Sans';fill:#3cff00;fill-opacity:1;stroke:none;stroke-width:0.6508016;stroke-miterlimit:4;stroke-dasharray:none;stroke-opacity:1"
           d="m -199.84299,-73.042797 v -5.110343 c 0.0678,-1.271229 0.34747,-2.398386 0.83902,-3.38147 0.21187,-0.415269 0.47459,-0.8263 0.78816,-1.233093 0.32204,-0.406793 0.72036,-0.771213 1.19495,-1.093258 0.48307,-0.322044 1.04241,-0.580528 1.67803,-0.77545 0.64409,-0.203397 1.39411,-0.305095 2.25007,-0.305095 h 6.85558 l -1.61993,3.063664 h -4.3585 c -0.57629,0 -1.08054,0.0678 -1.51276,0.203396 -0.43222,0.127123 -0.80935,0.305096 -1.1314,0.533917 -0.32204,0.220346 -0.59747,0.470354 -0.82629,0.750025 -0.22036,0.279671 -0.39832,0.559341 -0.53392,0.839011 -0.33053,0.69494 -0.52121,1.466152 -0.57206,2.313639 v 3.483168 c 0.0508,0.923761 0.24153,1.741585 0.57206,2.453474 0.1356,0.31357 0.31356,0.614427 0.53392,0.902573 0.22882,0.279671 0.50425,0.538154 0.82629,0.77545 0.32205,0.237296 0.69918,0.423743 1.1314,0.559341 0.4407,0.135597 0.94495,0.203396 1.51276,0.203396 h 2.78399 0.0254 v -5.021357 h -3.55786 l 1.6292,-3.063662 h 5.00503 v 11.059697 0.02543 h -6.76293 c -0.84749,0 -1.59328,-0.101698 -2.23737,-0.305095 -0.64409,-0.211872 -1.20767,-0.487305 -1.69074,-0.826299 -0.47459,-0.338995 -0.87291,-0.720364 -1.19495,-1.144108 -0.32205,-0.423743 -0.58477,-0.864436 -0.78816,-1.322078 -0.48307,-1.059358 -0.76274,-2.254314 -0.83901,-3.584867 z" />
      </g>
      <g
         aria-label="amers inc."
         style="font-style:normal;font-variant:normal;font-weight:normal;font-stretch:normal;font-size:23.66843796px;line-height:1.25;font-family:'Segoe UI';-inkscape-font-specification:'Segoe UI';letter-spacing:0px;word-spacing:0px;fill:#f2f2f2;fill-opacity:1;stroke:none;stroke-width:0.59171098"
         id="text919">
        <path
           d="m 25.973543,-34.985435 5.085016,-17.346839 h 1.421493 1.375265 l 5.131244,17.346839 h -2.762089 l -1.305924,-4.518731 h -4.853879 l -1.317481,4.518731 z m 4.876992,-7.269262 h 3.259033 l -1.629516,-5.605074 z"
           style="font-style:normal;font-variant:normal;font-weight:normal;font-stretch:normal;font-family:'Nidus Sans';-inkscape-font-specification:'Nidus Sans';fill:#2b0000;fill-opacity:1;stroke-width:0.59171098"
           id="path4487" />
        <path
           d="m 40.361826,-34.985435 v -17.346839 h 2.796759 l 3.744421,6.275372 3.732864,-6.275372 h 2.796758 v 17.346839 H 50.63587 v -12.284937 l -3.732864,6.367827 -3.744421,-6.39094 v 12.30805 z"
           style="font-style:normal;font-variant:normal;font-weight:normal;font-stretch:normal;font-family:'Nidus Sans';-inkscape-font-specification:'Nidus Sans';fill:#2b0000;fill-opacity:1;stroke-width:0.59171098"
           id="path4489" />
        <path
           d="m 56.079149,-34.985435 v -17.346839 h 11.984458 v 2.8661 h -9.187699 v 4.472503 h 5.373937 v 2.785201 h -5.373937 v 4.495617 h 9.187699 v 2.727418 z"
           style="font-style:normal;font-variant:normal;font-weight:normal;font-stretch:normal;font-family:'Nidus Sans';-inkscape-font-specification:'Nidus Sans';fill:#2b0000;fill-opacity:1;stroke-width:0.59171098"
           id="path4491" />
        <path
           d="m 70.201624,-34.985435 v -17.346839 h 7.431058 q 0.589399,0 1.386822,0.161796 0.797423,0.161796 1.479278,0.704968 0.693411,0.531615 1.178799,1.513948 0.485388,0.982333 0.485388,2.634963 0,0.924548 -0.208024,1.594846 -0.196466,0.65874 -0.473831,1.097901 -0.265807,0.427604 -0.520058,0.658741 -0.242694,0.21958 -0.312035,0.242694 v 0.09245 q 0.427603,0.231137 0.751195,0.693412 0.288922,0.40449 0.520059,1.109458 0.242694,0.693411 0.242694,1.779755 v 0.02311 5.038789 H 79.36621 v -5.061903 h -0.02311 q 0,-0.832093 -0.300478,-1.271254 -0.288921,-0.43916 -0.647184,-0.647184 -0.427603,-0.265807 -0.947662,-0.312035 h -4.449389 v 4.472503 2.819873 z m 2.796759,-10.077578 h 4.449389 q 0.02311,0 0.312035,-0.04623 0.300478,-0.05778 0.658741,-0.265808 0.358262,-0.21958 0.635627,-0.65874 0.288921,-0.450718 0.288921,-1.282811 0,-0.832094 -0.300478,-1.259697 -0.288921,-0.439161 -0.647184,-0.658741 -0.427603,-0.265808 -0.947662,-0.312035 h -4.449389 z"
           style="font-style:normal;font-variant:normal;font-weight:normal;font-stretch:normal;font-family:'Nidus Sans';-inkscape-font-specification:'Nidus Sans';fill:#2b0000;fill-opacity:1;stroke-width:0.59171098"
           id="path4493" />
        <path
           d="m 83.642247,-47.316599 v -0.02311 -0.02311 -0.02311 -0.02311 q 0,-1.606403 0.485388,-2.577179 0.485388,-0.970775 1.178799,-1.490834 0.704968,-0.531615 1.467721,-0.693411 0.774309,-0.161796 1.386822,-0.161796 h 6.887885 v 2.785202 h -2.242029 -4.449389 q -0.520059,0.02311 -0.947662,0.288921 -0.358263,0.208024 -0.658741,0.647184 -0.288922,0.439161 -0.288922,1.24814 0,0.832094 0.288922,1.282811 0.300478,0.439161 0.658741,0.681855 0.427603,0.265807 0.970775,0.335148 h 2.738975 q 0.589399,0 1.375265,0.161796 0.785867,0.161796 1.467721,0.670298 0.693411,0.508502 1.155685,1.479277 0.473831,0.970776 0.508502,2.611849 v 0.02311 0.02311 0.02311 0.02311 q -0.02311,1.606403 -0.508502,2.600293 -0.485387,0.993889 -1.178799,1.537061 -0.681854,0.543172 -1.46772,0.739639 -0.774309,0.18491 -1.375266,0.18491 h -6.887885 v -2.750532 l 6.702975,0.02311 q 0.520059,-0.09245 0.947662,-0.369819 0.358263,-0.265808 0.647184,-0.728082 0.300479,-0.462274 0.300479,-1.282811 0,-0.832094 -0.300479,-1.271254 -0.288921,-0.439161 -0.647184,-0.62407 -0.427603,-0.231137 -0.924548,-0.265808 h -2.750531 q -0.612514,0 -1.39838,-0.173353 -0.774309,-0.173353 -1.479277,-0.716525 -0.693411,-0.554729 -1.178799,-1.548618 -0.485388,-0.99389 -0.485388,-2.623406 z"
           style="font-style:normal;font-variant:normal;font-weight:normal;font-stretch:normal;font-family:'Nidus Sans';-inkscape-font-specification:'Nidus Sans';fill:#2b0000;fill-opacity:1;stroke-width:0.59171098"
           id="path4495" />
        <path
           d="m 107.50715,-34.962322 v -17.369952 h 2.79676 v 17.369952 z"
           style="font-style:normal;font-variant:normal;font-weight:normal;font-stretch:normal;font-family:'Nidus Sans';-inkscape-font-specification:'Nidus Sans';fill:#2b0000;fill-opacity:1;stroke-width:0.59171098"
           id="path4497" />
        <path
           d="m 112.9851,-34.939208 v -17.346839 h 2.79676 l 7.36171,12.238709 V -52.30916 h 2.93544 v 17.369952 h -2.93544 l -7.36171,-12.261823 v 12.261823 z"
           style="font-style:normal;font-variant:normal;font-weight:normal;font-stretch:normal;font-family:'Nidus Sans';-inkscape-font-specification:'Nidus Sans';fill:#2b0000;fill-opacity:1;stroke-width:0.59171098"
           id="path4499" />
        <path
           d="M 127.85877,-41.491945 V -46.1378 q 0.0924,-1.733528 0.76275,-3.074123 0.28892,-0.566286 0.71653,-1.121015 0.43916,-0.554729 1.08634,-0.99389 0.65874,-0.43916 1.52551,-0.704968 0.87832,-0.277364 2.04556,-0.277364 h 6.14825 v 2.796758 h -5.35083 q -0.78586,0 -1.37526,0.173353 -0.5894,0.173353 -1.02856,0.485388 -0.42761,0.300478 -0.73964,0.681855 -0.31204,0.381376 -0.49695,0.762752 -0.45072,0.947662 -0.52006,2.103347 v 3.178135 q 0.0693,1.259698 0.52006,2.218917 0.18491,0.427603 0.49695,0.820536 0.31203,0.381376 0.73964,0.704968 0.43916,0.323592 1.02856,0.520059 0.60095,0.184909 1.37526,0.184909 l 5.35083,-0.03467 v 2.750531 h -6.14825 q -1.15569,0 -2.03401,-0.277364 -0.87832,-0.288922 -1.53706,-0.751196 -0.64718,-0.462274 -1.08634,-1.040117 -0.43916,-0.577842 -0.71653,-1.201913 -0.65874,-1.444606 -0.76275,-3.259033 z"
           style="font-style:normal;font-variant:normal;font-weight:normal;font-stretch:normal;font-family:'Nidus Sans';-inkscape-font-specification:'Nidus Sans';fill:#2b0000;fill-opacity:1;stroke-width:0.59171098"
           id="path4501" />
        <path
           d="m 141.70388,-34.985435 v -2.796759 h 2.79676 v 2.796759 z"
           style="font-style:normal;font-variant:normal;font-weight:normal;font-stretch:normal;font-family:'Nidus Sans';-inkscape-font-specification:'Nidus Sans';fill:#2b0000;fill-opacity:1;stroke-width:0.59171098"
           id="path4503" />
      </g>
    </g>
  </g>
</svg>
